<svg width="979" height="662" viewBox="0 0 979 662" fill="none" xmlns="http://www.w3.org/2000/svg">
<path d="M894.535 231.389C893.508 232.231 892.482 233.037 891.431 233.831H632.148C630.217 233.037 628.295 232.224 626.38 231.389C599.008 219.485 573.531 203.633 550.761 184.34C535.642 171.54 521.733 158.324 511.65 145.939C497.583 128.656 484.626 109.823 478.601 88.3627C472.587 66.9027 474.384 42.3036 487.816 24.5078C491.977 19.0336 497.089 14.3539 502.911 10.6937C503.876 10.083 504.854 9.49678 505.856 8.94715C521.965 -0.0912357 542.291 -2.28977 560.43 2.3882C586.402 9.0937 607.985 27.8178 623.385 49.7786C638.785 71.7272 648.784 96.937 658.634 121.866C668.632 77.3701 698.906 37.5157 739.802 17.2527C780.685 -3.01041 831.482 -2.76611 871.496 19.1825C884.088 26.1303 895.46 35.0825 905.17 45.6869C906.134 46.7251 907.076 47.7877 908.004 48.8626C927.523 71.4463 939.733 100.369 940.735 130.195C942.018 168.621 924.198 207.217 894.535 231.389Z" fill="#F2F2F2"/>
<path d="M642.511 233.833H638.845C638.797 233.014 638.736 232.208 638.663 231.39C637.381 215.413 634.698 199.58 630.644 184.073C621.345 148.668 605.461 115.33 583.82 85.798C562.243 56.1716 535.04 31.0793 503.765 11.9521C503.536 11.8211 503.341 11.6397 503.193 11.4217C503.044 11.2037 502.947 10.9549 502.91 10.694C502.851 10.3529 502.888 10.0019 503.02 9.68177C503.152 9.36166 503.374 9.08568 503.656 8.88598C503.94 8.68629 504.273 8.5711 504.619 8.55387C504.966 8.53664 505.31 8.61805 505.612 8.78862C505.695 8.83721 505.777 8.89021 505.855 8.94739C523.575 19.7404 540.023 32.4905 554.892 46.9574C581.486 72.8831 602.93 103.605 618.093 137.501C631.469 167.186 639.661 198.941 642.317 231.39C642.39 232.208 642.452 233.026 642.511 233.833Z" fill="white"/>
<path d="M908.008 48.8626C907.981 48.8764 907.952 48.8845 907.922 48.887C905.246 49.3756 902.557 49.8885 899.891 50.4382C878.019 54.9269 856.61 61.4238 835.932 69.8463C815.311 78.2568 795.474 88.475 776.654 100.381C757.811 112.281 740.043 125.801 723.55 140.785C707.056 155.748 691.926 172.147 678.339 189.788C668.185 203.006 658.951 216.905 650.706 231.389C650.241 232.195 649.789 233.013 649.336 233.831H645.145C645.585 233.013 646.037 232.195 646.501 231.389C656.477 213.642 667.916 196.757 680.699 180.908C694.834 163.369 710.504 147.122 727.522 132.357C744.432 117.677 762.579 104.486 781.765 92.9308C801.028 81.3291 821.281 71.4542 842.289 63.4217C862.673 55.6338 883.72 49.6981 905.172 45.6869C905.77 45.577 906.357 45.4671 906.957 45.3571C909.241 44.9419 910.22 48.3862 908.008 48.8626Z" fill="white"/>
<path d="M241.608 241.093C248.128 228.792 249.205 212.772 241.097 201.453C236.271 194.716 228.735 190.293 220.829 187.798C212.922 185.304 204.582 184.57 196.312 183.964C188.127 183.364 179.795 182.884 171.799 184.733C163.803 186.584 156.058 191.104 152.162 198.323C145.581 210.52 151.576 226.158 146.744 239.146C142.308 251.064 129.684 258.031 117.275 260.843C104.866 263.656 91.9135 263.356 79.4982 266.14C67.0827 268.925 54.4382 275.828 49.9242 287.717C46.6599 296.313 48.2817 306.217 52.583 314.345C56.8842 322.473 63.6206 329.054 70.7711 334.841C81.4384 343.475 93.9185 350.869 107.625 351.617C122.067 352.406 136.188 345.536 146.583 335.485C156.977 325.434 164.054 312.447 169.708 299.142C173.295 290.702 176.684 281.62 183.872 275.921C189.153 271.733 195.871 269.898 202.386 268.162L209.764 266.197C216.448 264.449 222.705 261.353 228.147 257.099C233.59 252.845 238.104 247.523 241.412 241.46C241.478 241.338 241.543 241.216 241.608 241.093Z" fill="#2F2E41"/>
<path d="M183.433 645.713H168.45L161.32 587.955H183.436L183.433 645.713Z" fill="#FFB8B8"/>
<path d="M157.742 641.434H186.64V659.617H139.547C139.547 657.229 140.017 654.865 140.932 652.659C141.846 650.452 143.187 648.447 144.876 646.759C146.565 645.071 148.572 643.731 150.779 642.818C152.986 641.904 155.353 641.434 157.742 641.434Z" fill="#2F2E41"/>
<path d="M308.097 645.713H293.114L285.984 587.955H308.1L308.097 645.713Z" fill="#FFB8B8"/>
<path d="M282.41 641.434H311.308V659.617H264.215C264.215 657.229 264.685 654.865 265.6 652.659C266.514 650.452 267.855 648.447 269.544 646.759C271.233 645.071 273.24 643.731 275.447 642.818C277.654 641.904 280.021 641.434 282.41 641.434Z" fill="#2F2E41"/>
<path d="M212.237 599.806C212.028 599.806 211.819 599.795 211.611 599.773L150.649 593.246C149.84 593.159 149.058 592.9 148.356 592.489C147.654 592.076 147.049 591.519 146.578 590.855C146.109 590.19 145.786 589.433 145.631 588.634C145.477 587.835 145.495 587.013 145.683 586.221L199.66 381.062C199.912 380.019 200.452 379.066 201.217 378.312C201.984 377.559 202.944 377.033 203.993 376.796L254.065 362.848C255.069 362.627 256.114 362.679 257.091 362.997C258.069 363.316 258.943 363.889 259.625 364.658C291.818 400.946 316.079 481.389 334.458 582.782C334.596 583.547 334.578 584.332 334.403 585.091C334.228 585.848 333.901 586.563 333.441 587.189C332.98 587.817 332.399 588.345 331.728 588.739C331.058 589.134 330.313 589.389 329.542 589.488L279.592 595.86C278.176 596.044 276.741 595.691 275.571 594.872C274.402 594.052 273.582 592.825 273.272 591.431L248.971 483.155C248.747 482.158 248.187 481.269 247.386 480.635C246.585 480.001 245.59 479.663 244.567 479.674C243.545 479.686 242.559 480.048 241.772 480.7C240.986 481.352 240.447 482.255 240.247 483.256L217.843 595.199C217.589 596.497 216.891 597.669 215.868 598.509C214.845 599.349 213.561 599.809 212.237 599.806Z" fill="#2F2E41"/>
<path d="M202.96 269.264C219.54 269.264 232.979 255.834 232.979 239.265C232.979 222.697 219.54 209.266 202.96 209.266C186.381 209.266 172.941 222.697 172.941 239.265C172.941 255.834 186.381 269.264 202.96 269.264Z" fill="#FFB8B8"/>
<path d="M202.125 381.638C200.863 381.637 199.637 381.219 198.638 380.45C197.638 379.679 196.922 378.6 196.599 377.382L178.539 309.581C177.237 304.711 177.776 299.529 180.056 295.03C182.336 290.531 186.195 287.029 190.896 285.197C205.433 279.526 219.283 277.423 232.062 278.941C243.419 280.295 257.428 347.485 256.501 348.918L260.983 362.353C261.237 363.116 261.328 363.923 261.25 364.722C261.171 365.52 260.927 366.295 260.53 366.993C260.134 367.692 259.594 368.299 258.947 368.777C258.3 369.253 257.561 369.589 256.776 369.761L203.371 381.501C202.962 381.592 202.544 381.638 202.125 381.638Z" fill="#CCCCCC"/>
<path d="M218.31 450.973C218.567 449.64 218.529 448.264 218.197 446.946C217.865 445.629 217.248 444.4 216.389 443.346C215.531 442.293 214.452 441.439 213.227 440.848C212.004 440.256 210.664 439.939 209.305 439.921L198.9 408.568L188.266 422.048L199.777 449.754C199.896 452.04 200.851 454.2 202.459 455.83C204.067 457.458 206.218 458.44 208.502 458.59C210.786 458.74 213.046 458.049 214.854 456.644C216.662 455.241 217.891 453.223 218.31 450.973Z" fill="#FFB8B8"/>
<path d="M352.078 375.623C351.455 374.415 350.575 373.358 349.499 372.526C348.424 371.695 347.178 371.11 345.851 370.812C344.525 370.514 343.149 370.509 341.82 370.799C340.492 371.09 339.244 371.669 338.163 372.493L310.595 354.268L310.57 371.433L336.753 386.11C338.26 387.832 340.347 388.941 342.618 389.229C344.889 389.516 347.187 388.96 349.076 387.668C350.966 386.376 352.314 384.435 352.868 382.216C353.42 379.995 353.14 377.649 352.078 375.623Z" fill="#FFB8B8"/>
<path d="M196.494 436.488C195.287 436.488 194.113 436.108 193.135 435.403C192.157 434.697 191.427 433.702 191.05 432.557L166.658 380.994C165.657 377.973 165.147 374.81 165.148 371.628L172.482 304.608C172.482 300.855 173.914 297.244 176.488 294.512C179.061 291.78 182.581 290.131 186.33 289.905C190.077 289.678 193.77 290.889 196.656 293.29C199.541 295.693 201.398 299.104 201.852 302.83L190.632 379.327L208.536 426.278C208.82 427.527 208.675 428.834 208.125 429.992C207.577 431.149 206.654 432.088 205.507 432.66L199.057 435.883C198.261 436.281 197.383 436.488 196.494 436.488Z" fill="#CCCCCC"/>
<path d="M326.764 382.393C325.866 382.393 324.979 382.182 324.179 381.777L275.671 357.292C272.827 355.858 270.232 353.977 267.985 351.721L220.64 304.255C217.989 301.597 216.453 298.029 216.346 294.279C216.238 290.528 217.568 286.878 220.061 284.072C222.556 281.268 226.027 279.52 229.767 279.187C233.507 278.853 237.234 279.959 240.185 282.277L291.473 339.198L332.128 364.994C333.211 365.678 334.032 366.706 334.461 367.914C334.889 369.121 334.9 370.437 334.491 371.651L332.199 378.484C331.817 379.623 331.087 380.612 330.112 381.314C329.136 382.016 327.965 382.393 326.764 382.393Z" fill="#CCCCCC"/>
<path d="M168.816 223.756C173.916 230.422 181.245 235.031 189.466 236.741C197.799 238.462 206.471 237.22 213.984 233.23C220.03 229.966 224.868 225.067 229.606 220.242C231.584 218.229 233.691 215.907 233.591 213.162C233.437 208.906 228.318 206.581 223.925 205.652C209.504 202.646 194.499 204.332 181.107 210.465C175.143 213.234 168.929 218.243 169.824 224.469" fill="#2F2E41"/>
<path d="M957.147 231.389H368.036C362.527 231.397 357.247 233.587 353.352 237.48C349.458 241.371 347.265 246.649 347.258 252.152V479.333C347.265 484.838 349.458 490.115 353.352 494.007C357.247 497.9 362.527 500.09 368.036 500.097H957.147C962.655 500.09 967.935 497.9 971.831 494.007C975.726 490.115 977.917 484.838 977.924 479.333V252.152C977.917 246.649 975.726 241.371 971.831 237.48C967.935 233.587 962.655 231.397 957.147 231.389ZM975.48 479.333C975.474 484.191 973.54 488.848 970.103 492.282C966.667 495.717 962.007 497.648 957.147 497.654H368.036C363.175 497.648 358.516 495.717 355.079 492.282C351.642 488.848 349.708 484.191 349.702 479.333V252.152C349.708 247.296 351.642 242.639 355.079 239.204C358.516 235.77 363.175 233.837 368.036 233.831H957.147C962.007 233.837 966.667 235.77 970.103 239.204C973.54 242.639 975.474 247.296 975.48 252.152V479.333Z" fill="#3F3D56"/>
<path d="M475.003 436.584C460.981 436.584 447.277 432.43 435.619 424.646C423.961 416.861 414.875 405.797 409.51 392.853C404.144 379.909 402.74 365.665 405.475 351.923C408.211 338.181 414.962 325.559 424.877 315.651C434.79 305.744 447.422 298.997 461.173 296.263C474.923 293.53 489.177 294.932 502.13 300.294C515.083 305.656 526.155 314.736 533.944 326.386C541.734 338.035 545.892 351.732 545.892 365.743C545.87 384.526 538.394 402.531 525.105 415.812C511.815 429.093 493.797 436.563 475.003 436.584ZM475.003 297.344C461.465 297.344 448.232 301.357 436.977 308.872C425.721 316.387 416.948 327.07 411.769 339.568C406.588 352.067 405.232 365.819 407.873 379.087C410.515 392.355 417.033 404.543 426.605 414.108C436.178 423.674 448.373 430.189 461.65 432.827C474.927 435.467 488.688 434.112 501.195 428.936C513.702 423.758 524.391 414.991 531.912 403.743C539.432 392.495 543.447 379.271 543.447 365.743C543.426 347.609 536.209 330.223 523.377 317.401C510.546 304.579 493.149 297.365 475.003 297.344Z" fill="#FF6D33"/>
<path d="M904.581 380.4H622.247C618.301 380.402 614.509 381.931 611.665 384.666C608.822 387.399 607.148 391.128 606.994 395.069C606.974 395.268 606.966 395.468 606.97 395.667C606.976 399.715 608.587 403.595 611.451 406.457C614.315 409.319 618.197 410.93 622.247 410.935H904.581C908.632 410.935 912.519 409.326 915.384 406.463C918.249 403.6 919.858 399.717 919.858 395.667C919.858 391.618 918.249 387.735 915.384 384.871C912.519 382.008 908.632 380.4 904.581 380.4Z" fill="#FF6D33"/>
<path d="M466.889 661.322H1.22222C0.898069 661.322 0.587191 661.194 0.357979 660.964C0.128768 660.736 0 660.426 0 660.101C0 659.777 0.128768 659.467 0.357979 659.237C0.587191 659.009 0.898069 658.879 1.22222 658.879H466.889C467.213 658.879 467.524 659.009 467.753 659.237C467.983 659.467 468.111 659.777 468.111 660.101C468.111 660.426 467.983 660.736 467.753 660.964C467.524 661.194 467.213 661.322 466.889 661.322Z" fill="#3F3D56"/>
<path d="M835.092 176.364C809.559 172.854 783.63 173.439 758.282 178.095C733.006 182.712 708.607 191.237 685.959 203.363C673.231 210.198 661.152 218.174 649.868 227.192C648.025 228.664 650.635 231.242 652.461 229.784C672.261 214.045 694.455 201.577 718.2 192.853C741.759 184.146 766.521 179.126 791.613 177.971C805.81 177.32 820.037 177.964 834.117 179.898C834.585 180.009 835.079 179.939 835.498 179.702C835.916 179.464 836.229 179.077 836.373 178.618C836.499 178.149 836.436 177.651 836.196 177.228C835.957 176.807 835.559 176.496 835.092 176.364Z" fill="white"/>
<path d="M483.592 324.486H451C448.839 324.486 446.766 325.344 445.239 326.87C443.71 328.397 442.852 330.469 442.852 332.628V397.769C442.852 399.93 443.71 402 445.239 403.528C446.766 405.055 448.839 405.912 451 405.912H499.889C502.05 405.912 504.122 405.055 505.651 403.528C507.178 402 508.036 399.93 508.036 397.769V348.914L483.592 324.486Z" stroke="#FF6D33" stroke-width="2" stroke-linecap="round" stroke-linejoin="round"/>
<path d="M483.594 324.486V348.914H508.038" stroke="#FF6D33" stroke-width="2" stroke-linecap="round" stroke-linejoin="round"/>
<path d="M491.741 369.27H459.148" stroke="#FF6D33" stroke-width="2" stroke-linecap="round" stroke-linejoin="round"/>
<path d="M491.741 385.556H459.148" stroke="#FF6D33" stroke-width="2" stroke-linecap="round" stroke-linejoin="round"/>
<path d="M467.297 352.985H463.222H459.148" stroke="#FF6D33" stroke-width="2" stroke-linecap="round" stroke-linejoin="round"/>
<path d="M672.526 354.207H667.156L656.7 337.067V354.207H651.328V328.157H656.7L667.173 345.332V328.157H672.526V354.207ZM676.071 344.349C676.071 342.427 676.441 340.716 677.182 339.214C677.921 337.71 678.983 336.548 680.368 335.724C681.765 334.901 683.382 334.49 685.22 334.49C687.833 334.49 689.965 335.29 691.611 336.887C693.271 338.486 694.196 340.656 694.387 343.4L694.422 344.724C694.422 347.694 693.593 350.08 691.934 351.881C690.275 353.67 688.049 354.565 685.256 354.565C682.463 354.565 680.231 353.67 678.56 351.881C676.901 350.092 676.071 347.659 676.071 344.581V344.349ZM681.246 344.724C681.246 346.561 681.592 347.969 682.283 348.946C682.976 349.912 683.966 350.396 685.256 350.396C686.509 350.396 687.488 349.918 688.192 348.964C688.897 347.998 689.249 346.459 689.249 344.349C689.249 342.547 688.897 341.152 688.192 340.162C687.488 339.171 686.498 338.677 685.22 338.677C683.955 338.677 682.976 339.171 682.283 340.162C681.592 341.14 681.246 342.661 681.246 344.724ZM705.935 344.384C705.935 341.366 706.609 338.964 707.957 337.174C709.319 335.385 711.174 334.49 713.526 334.49C715.412 334.49 716.969 335.194 718.198 336.601V326.725H723.39V354.207H718.718L718.467 352.149C717.178 353.76 715.519 354.565 713.49 354.565C711.21 354.565 709.378 353.67 707.994 351.881C706.622 350.08 705.935 347.581 705.935 344.384ZM711.108 344.76C711.108 346.573 711.425 347.963 712.058 348.929C712.69 349.895 713.609 350.378 714.815 350.378C716.414 350.378 717.542 349.703 718.198 348.356V340.716C717.554 339.369 716.438 338.695 714.851 338.695C712.356 338.695 711.108 340.716 711.108 344.76ZM738.627 354.207C738.388 353.741 738.215 353.164 738.107 352.471C736.854 353.867 735.225 354.565 733.219 354.565C731.323 354.565 729.746 354.016 728.493 352.918C727.251 351.821 726.632 350.437 726.632 348.768C726.632 346.716 727.389 345.141 728.905 344.045C730.433 342.947 732.635 342.392 735.511 342.38H737.892V341.271C737.892 340.377 737.66 339.661 737.194 339.124C736.741 338.587 736.018 338.319 735.028 338.319C734.157 338.319 733.47 338.528 732.969 338.945C732.48 339.363 732.236 339.935 732.236 340.663H727.061C727.061 339.541 727.407 338.504 728.1 337.549C728.791 336.595 729.77 335.85 731.035 335.313C732.3 334.764 733.721 334.49 735.296 334.49C737.684 334.49 739.575 335.093 740.972 336.297C742.38 337.489 743.085 339.171 743.085 341.343V349.734C743.096 351.571 743.353 352.96 743.854 353.903V354.207H738.627ZM734.348 350.611C735.111 350.611 735.815 350.443 736.461 350.11C737.105 349.763 737.583 349.304 737.892 348.732V345.404H735.958C733.369 345.404 731.99 346.298 731.824 348.087L731.805 348.392C731.805 349.036 732.033 349.567 732.486 349.984C732.94 350.402 733.56 350.611 734.348 350.611ZM753.254 330.089V334.847H756.566V338.641H753.254V348.302C753.254 349.018 753.391 349.531 753.666 349.841C753.94 350.152 754.465 350.307 755.241 350.307C755.815 350.307 756.322 350.264 756.763 350.181V354.099C755.749 354.409 754.704 354.565 753.629 354.565C750.002 354.565 748.151 352.734 748.079 349.072V338.641H745.251V334.847H748.079V330.089H753.254ZM770.674 354.207C770.435 353.741 770.263 353.164 770.155 352.471C768.902 353.867 767.273 354.565 765.267 354.565C763.369 354.565 761.794 354.016 760.541 352.918C759.299 351.821 758.678 350.437 758.678 348.768C758.678 346.716 759.436 345.141 760.953 344.045C762.481 342.947 764.682 342.392 767.559 342.38H769.94V341.271C769.94 340.377 769.708 339.661 769.242 339.124C768.789 338.587 768.066 338.319 767.075 338.319C766.205 338.319 765.518 338.528 765.017 338.945C764.527 339.363 764.282 339.935 764.282 340.663H759.109C759.109 339.541 759.454 338.504 760.147 337.549C760.839 336.595 761.818 335.85 763.083 335.313C764.348 334.764 765.768 334.49 767.344 334.49C769.731 334.49 771.623 335.093 773.02 336.297C774.428 337.489 775.132 339.171 775.132 341.343V349.734C775.144 351.571 775.401 352.96 775.902 353.903V354.207H770.674ZM766.395 350.611C767.159 350.611 767.863 350.443 768.507 350.11C769.153 349.763 769.629 349.304 769.94 348.732V345.404H768.006C765.416 345.404 764.038 346.298 763.87 348.087L763.853 348.392C763.853 349.036 764.079 349.567 764.533 349.984C764.986 350.402 765.607 350.611 766.395 350.611ZM789.652 354.207V338.641H786.77V334.847H789.652V333.202C789.652 331.031 790.273 329.349 791.515 328.157C792.767 326.952 794.516 326.349 796.76 326.349C797.475 326.349 798.353 326.469 799.392 326.707L799.338 330.715C798.908 330.608 798.383 330.554 797.763 330.554C795.817 330.554 794.844 331.467 794.844 333.291V334.847H798.694V338.641H794.844V354.207H789.652ZM800.574 344.349C800.574 342.427 800.943 340.716 801.683 339.214C802.423 337.71 803.485 336.548 804.87 335.724C806.267 334.901 807.884 334.49 809.722 334.49C812.336 334.49 814.467 335.29 816.114 336.887C817.773 338.486 818.698 340.656 818.889 343.4L818.924 344.724C818.924 347.694 818.095 350.08 816.436 351.881C814.777 353.67 812.55 354.565 809.757 354.565C806.965 354.565 804.733 353.67 803.062 351.881C801.402 350.092 800.574 347.659 800.574 344.581V344.349ZM805.747 344.724C805.747 346.561 806.093 347.969 806.786 348.946C807.478 349.912 808.469 350.396 809.757 350.396C811.011 350.396 811.989 349.918 812.695 348.964C813.398 347.998 813.75 346.459 813.75 344.349C813.75 342.547 813.398 341.152 812.695 340.162C811.989 339.171 810.999 338.677 809.722 338.677C808.457 338.677 807.478 339.171 806.786 340.162C806.093 341.14 805.747 342.661 805.747 344.724ZM833.713 352.239C832.436 353.789 830.67 354.565 828.413 354.565C826.337 354.565 824.749 353.968 823.652 352.775C822.565 351.583 822.01 349.835 821.986 347.533V334.847H827.161V347.355C827.161 349.37 828.08 350.378 829.917 350.378C831.672 350.378 832.877 349.769 833.533 348.553V334.847H838.725V354.207H833.856L833.713 352.239ZM847.391 334.847L847.552 337.084C848.937 335.354 850.794 334.49 853.121 334.49C855.174 334.49 856.702 335.093 857.704 336.297C858.706 337.502 859.22 339.303 859.244 341.701V354.207H854.069V341.825C854.069 340.728 853.831 339.935 853.353 339.446C852.876 338.945 852.082 338.695 850.972 338.695C849.516 338.695 848.424 339.315 847.695 340.555V354.207H842.522V334.847H847.391ZM862.377 344.384C862.377 341.366 863.051 338.964 864.399 337.174C865.761 335.385 867.616 334.49 869.968 334.49C871.854 334.49 873.411 335.194 874.64 336.601V326.725H879.832V354.207H875.16L874.909 352.149C873.62 353.76 871.961 354.565 869.932 354.565C867.652 354.565 865.82 353.67 864.436 351.881C863.063 350.08 862.377 347.581 862.377 344.384ZM867.55 344.76C867.55 346.573 867.867 347.963 868.5 348.929C869.132 349.895 870.051 350.378 871.257 350.378C872.856 350.378 873.984 349.703 874.64 348.356V340.716C873.996 339.369 872.88 338.695 871.293 338.695C868.798 338.695 867.55 340.716 867.55 344.76Z" fill="#FF6D33"/>
</svg>
